# xmcd
#
# Track frame offsets:
# 150
# 16150
# 33545
# 46607
# 62833
# 68495
# 83408
# 102348
# 112615
# 117238
#
# Disc length: 1954 seconds
#
#
# Revision: 1
# Processed by: cddbd v1.5.1PL0 Copyright (c) Steve Scherf et al.
# Submitted via: FreeRIP 2.90 
#
DISCID=6a07a00a
DTITLE=Krauthobel - Die Beschta Of D`r Wält
DYEAR=1994
DGENRE=Blues
TTITLE0=sayonara tante klara
TTITLE1=geliebtes muntafu
TTITLE2=wo dia zauberbluma blüan ...
TTITLE3=di beschta of d`r wält
TTITLE4=radio montafon - skätsch
TTITLE5=zulatta`s marie isch in kenja of safari
TTITLE6=trenk mr no`ch a fläschli wi
TTITLE7=ho`saladaboogie
TTITLE8=wo geht`s hier ins silbertal? (Originalversion)
TTITLE9=i ho`n di gära
EXTD=YEAR: 1994 ID3G: 0
EXTT0=
EXTT1=
EXTT2=
EXTT3=
EXTT4=
EXTT5=
EXTT6=
EXTT7=
EXTT8=
EXTT9=
PLAYORDER=
